<?xml version="1.0" encoding="UTF-8" standalone="no"?>
<!-- Created with Inkscape (http://www.inkscape.org/) -->

<svg
   xmlns:dc="http://purl.org/dc/elements/1.1/"
   xmlns:cc="http://creativecommons.org/ns#"
   xmlns:rdf="http://www.w3.org/1999/02/22-rdf-syntax-ns#"
   xmlns:svg="http://www.w3.org/2000/svg"
   xmlns="http://www.w3.org/2000/svg"
   xmlns:sodipodi="http://sodipodi.sourceforge.net/DTD/sodipodi-0.dtd"
   xmlns:inkscape="http://www.inkscape.org/namespaces/inkscape"
   width="94.872093mm"
   height="161.51517mm"
   viewBox="0 0 94.872093 161.51517"
   version="1.1"
   id="svg8"
   inkscape:version="0.92.0 r15299"
   sodipodi:docname="L3S-Logo-2024-Color-ICON.svg">
  <defs
     id="defs2" />
  <sodipodi:namedview
     id="base"
     pagecolor="#ffffff"
     bordercolor="#666666"
     borderopacity="1.0"
     inkscape:pageopacity="0.0"
     inkscape:pageshadow="2"
     inkscape:zoom="0.98994949"
     inkscape:cx="-43.654937"
     inkscape:cy="313.23428"
     inkscape:document-units="mm"
     inkscape:current-layer="layer1"
     showgrid="false"
     fit-margin-top="0"
     fit-margin-left="0"
     fit-margin-right="0"
     fit-margin-bottom="0"
     inkscape:window-width="2200"
     inkscape:window-height="1491"
     inkscape:window-x="-14"
     inkscape:window-y="-14"
     inkscape:window-maximized="1" />
  <metadata
     id="metadata5">
    <rdf:RDF>
      <cc:Work
         rdf:about="">
        <dc:format>image/svg+xml</dc:format>
        <dc:type
           rdf:resource="http://purl.org/dc/dcmitype/StillImage" />
        <dc:title></dc:title>
      </cc:Work>
    </rdf:RDF>
  </metadata>
  <g
     inkscape:label="Ebene 1"
     inkscape:groupmode="layer"
     id="layer1"
     transform="translate(-57.55618,-64.924281)">
    <path
       style="fill:#767878;fill-opacity:1;fill-rule:nonzero;stroke-width:0.26458332"
       inkscape:connector-curvature="0"
       d="m 141.18105,198.60136 c -0.27906,5.02501 -3.19257,10.0614 -9.18807,14.23995 -3.14916,2.19522 -8.22896,3.83233 -10.85205,3.52227 -3.68143,-0.43408 -5.75986,-2.9714 -7.50239,-6.22184 -3.89537,-7.26984 -5.46116,-18.60765 -4.0876,-29.58786 l 0.0351,-0.28112 0.31419,-0.0217 c 7.86205,-0.56637 16.83515,-0.43098 23.76186,4.86482 0.32349,0.24908 7.92199,6.20014 7.51892,13.48548 m -0.22428,-21.14289 c -7.24297,-5.53868 -16.31735,-7.90546 -28.5936,-7.42797 l -0.53123,0.0196 0.14882,-0.45682 c 0.45992,-1.40353 0.97255,-2.77812 1.52239,-4.08761 3.61632,-8.59792 8.20725,-12.93151 12.65039,-17.12763 4.89273,-4.61678 9.51467,-8.9793 11.01638,-17.26096 C 141.3257,108.19341 115.64975,83.766994 97.377997,72.940784 91.310151,69.345136 76.235103,61.525459 67.337455,66.573213 c -6.970118,3.953248 -5.212085,11.472166 -2.984831,20.991999 0.660425,2.822567 1.144116,4.426603 2.04742,8.796364 2.308904,-1.005623 4.854484,-1.566831 7.529255,-1.566831 1.243336,0 2.457733,0.124024 3.63492,0.354502 0,0 -4.128944,-12.543938 -4.815207,-16.743164 -0.604616,-3.695898 0.928108,-4.541327 3.471621,-4.299479 2.975528,0.283186 7.91373,2.174544 19.952271,10.423136 16.305976,11.173478 32.621266,30.01264 29.910316,44.9709 -0.94568,5.21311 -3.78065,7.88995 -8.07392,11.94345 -4.72013,4.45555 -10.59574,10.00043 -15.01511,20.50728 -1.17305,2.78639 -2.16731,5.78673 -2.95796,8.92039 l -0.05684,0.2253 -0.388607,0.0486 c -4.371824,0.49713 -8.501806,0.96532 -12.098485,0.96532 -4.802807,0 -7.941633,-0.87024 -9.876398,-2.74092 -2.258262,-2.18385 -2.084629,-4.83175 -0.427882,-14.34641 0.848527,-4.86896 1.902727,-10.9275 2.541447,-18.67897 0.100251,-1.20716 0.240811,-3.16673 0.240811,-3.16673 -1.876888,0.62632 -3.882967,0.97048 -5.968627,0.97048 -1.827279,0 -3.592544,-0.26561 -5.265828,-0.75137 0,0.003 -0.128158,1.2516 -0.206706,2.20348 -0.607715,7.35563 -1.623673,13.19093 -2.440161,17.87901 -1.69292,9.71724 -2.916618,16.73904 3.291789,22.73763 7.149949,6.91121 17.495573,6.44199 28.364159,5.2834 l 0.463021,-0.0496 -0.03824,0.41548 c -1.130681,12.29072 0.816489,24.18664 5.343337,32.63574 3.1533,5.88697 7.46828,9.76891 12.47676,11.22929 1.61127,0.46922 3.3569,0.70796 5.18728,0.70796 5.01985,0 10.47482,-1.73012 15.77268,-5.00434 7.11378,-4.3956 14.90762,-12.56978 15.44919,-22.33352 0.66559,-12.00961 -10.1999,-20.69125 -11.4422,-21.64313"
       id="path10" />
    <path
       style="fill:#100e0d;fill-opacity:1;fill-rule:nonzero;stroke-width:0.26458332"
       inkscape:connector-curvature="0"
       d="m 90.49887,114.63232 c 0,9.09609 -7.374226,16.47135 -16.471344,16.47135 -9.09712,0 -16.471346,-7.37526 -16.471346,-16.47135 0,-9.09712 7.374226,-16.471344 16.471346,-16.471344 9.097118,0 16.471344,7.374224 16.471344,16.471344"
       id="path12" />
  </g>
</svg>
