<?xml version="1.0" encoding="UTF-8" standalone="no"?>
<!-- Created with Inkscape (http://www.inkscape.org/) -->

<svg
   xmlns:dc="http://purl.org/dc/elements/1.1/"
   xmlns:cc="http://creativecommons.org/ns#"
   xmlns:rdf="http://www.w3.org/1999/02/22-rdf-syntax-ns#"
   xmlns:svg="http://www.w3.org/2000/svg"
   xmlns="http://www.w3.org/2000/svg"
   xmlns:sodipodi="http://sodipodi.sourceforge.net/DTD/sodipodi-0.dtd"
   xmlns:inkscape="http://www.inkscape.org/namespaces/inkscape"
   width="94.872139mm"
   height="161.51518mm"
   viewBox="0 0 94.872139 161.51518"
   version="1.1"
   id="svg90"
   inkscape:version="0.92.0 r15299"
   sodipodi:docname="L3S-Logo-2024-COLOR-ICON.svg">
  <defs
     id="defs84" />
  <sodipodi:namedview
     id="base"
     pagecolor="#ffffff"
     bordercolor="#666666"
     borderopacity="1.0"
     inkscape:pageopacity="0.0"
     inkscape:pageshadow="2"
     inkscape:zoom="1.979899"
     inkscape:cx="125.8213"
     inkscape:cy="326.50732"
     inkscape:document-units="mm"
     inkscape:current-layer="layer1"
     showgrid="false"
     fit-margin-top="0"
     fit-margin-left="0"
     fit-margin-right="0"
     fit-margin-bottom="0"
     inkscape:window-width="2200"
     inkscape:window-height="1491"
     inkscape:window-x="-14"
     inkscape:window-y="-14"
     inkscape:window-maximized="1" />
  <metadata
     id="metadata87">
    <rdf:RDF>
      <cc:Work
         rdf:about="">
        <dc:format>image/svg+xml</dc:format>
        <dc:type
           rdf:resource="http://purl.org/dc/dcmitype/StillImage" />
        <dc:title></dc:title>
      </cc:Work>
    </rdf:RDF>
  </metadata>
  <g
     inkscape:label="Ebene 1"
     inkscape:groupmode="layer"
     id="layer1"
     transform="translate(-40.169277,-57.364787)">
    <path
       style="fill:#558cb7;fill-opacity:1;fill-rule:nonzero;stroke-width:0.26458332"
       inkscape:connector-curvature="0"
       d="m 123.79415,191.04183 c -0.27906,5.02502 -3.19258,10.0614 -9.18807,14.23996 -3.14917,2.19521 -8.22896,3.83232 -10.85206,3.52226 -3.68142,-0.43408 -5.759851,-2.97139 -7.502381,-6.22184 -3.895367,-7.26984 -5.461163,-18.60765 -4.087603,-29.58786 l 0.03514,-0.28111 0.314193,-0.0217 c 7.862051,-0.56638 16.835141,-0.43098 23.761851,4.86482 0.3235,0.24908 7.922,6.20014 7.51893,13.48548 m -0.22428,-21.1429 c -7.24297,-5.53867 -16.31735,-7.90546 -28.593603,-7.42797 l -0.531233,0.0196 0.148828,-0.45682 c 0.45992,-1.40354 0.97255,-2.77813 1.522389,-4.08761 3.616314,-8.59793 8.207249,-12.93151 12.650389,-17.12764 4.89272,-4.61677 9.51466,-8.97929 11.01638,-17.26096 C 123.93884,100.63392 98.262888,76.2075 79.991134,65.38129 73.923288,61.785642 58.84824,53.965965 49.950592,59.013719 c -6.970118,3.953248 -5.212085,11.472166 -2.984831,20.991999 0.660425,2.822567 1.144116,4.426603 2.04742,8.796364 2.308904,-1.005623 4.854484,-1.566831 7.529255,-1.566831 1.243336,0 2.457733,0.124024 3.63492,0.354502 0,0 -4.128944,-12.543938 -4.815207,-16.743164 -0.604616,-3.695898 0.928108,-4.541327 3.471621,-4.299479 2.975528,0.283186 7.91373,2.174544 19.952271,10.423136 16.30598,11.173478 32.621259,30.012634 29.910319,44.970894 -0.94568,5.21312 -3.78065,7.88996 -8.07393,11.94346 -4.720123,4.45554 -10.595732,10.00042 -15.0151,20.50727 -1.173056,2.7864 -2.16731,5.78673 -2.957959,8.92039 l -0.05685,0.22531 -0.388607,0.0486 c -4.371824,0.49713 -8.501806,0.96532 -12.098485,0.96532 -4.802807,0 -7.941633,-0.87023 -9.876398,-2.74092 -2.258262,-2.18384 -2.084629,-4.83174 -0.427882,-14.34641 0.848527,-4.86895 1.902727,-10.9275 2.541447,-18.67896 0.100251,-1.20716 0.240811,-3.16673 0.240811,-3.16673 -1.876888,0.62632 -3.882967,0.97048 -5.968627,0.97048 -1.827279,0 -3.592544,-0.26561 -5.265828,-0.75137 0,0.003 -0.128158,1.2516 -0.206706,2.20348 -0.607715,7.35562 -1.623673,13.19092 -2.440161,17.87901 -1.69292,9.71724 -2.916618,16.73903 3.291789,22.73763 7.149949,6.91121 17.495573,6.44198 28.364159,5.2834 l 0.463021,-0.0496 -0.03824,0.41548 c -1.130681,12.29072 0.816489,24.18664 5.343343,32.63573 3.153296,5.88698 7.46828,9.76892 12.476757,11.22929 1.611276,0.46922 3.356906,0.70797 5.187286,0.70797 5.01985,0 10.47481,-1.73013 15.77268,-5.00435 7.11378,-4.39559 14.90762,-12.56977 15.44919,-22.33352 0.66559,-12.0096 -10.1999,-20.69124 -11.4422,-21.64312"
       id="path92" />
    <path
       style="fill:#00263e;fill-opacity:1;fill-rule:nonzero;stroke-width:0.26458332"
       inkscape:connector-curvature="0"
       d="m 73.111967,107.0728 c 0,9.09608 -7.374226,16.47134 -16.471344,16.47134 -9.09712,0 -16.471346,-7.37526 -16.471346,-16.47134 0,-9.097122 7.374226,-16.471348 16.471346,-16.471348 9.097118,0 16.471344,7.374226 16.471344,16.471348"
       id="path94" />
  </g>
</svg>
