<?xml version="1.0" encoding="UTF-8"?>
<svg xmlns="http://www.w3.org/2000/svg" xmlns:xlink="http://www.w3.org/1999/xlink" width="1148.78" height="811.423" viewBox="0 0 1148.78 811.423">
<path fill-rule="nonzero" fill="rgb(46.444702%, 47.17865%, 47.190857%)" fill-opacity="1" d="M 374.332031 605.722656 C 373.277344 624.714844 362.265625 643.75 339.605469 659.542969 C 327.703125 667.839844 308.503906 674.027344 298.589844 672.855469 C 284.675781 671.214844 276.820312 661.625 270.234375 649.339844 C 255.511719 621.863281 249.59375 579.011719 254.785156 537.511719 L 254.917969 536.449219 L 256.105469 536.367188 C 285.820312 534.226562 319.734375 534.738281 345.914062 554.753906 C 347.136719 555.695312 375.855469 578.1875 374.332031 605.722656 M 373.484375 525.8125 C 346.109375 504.878906 311.8125 495.933594 265.414062 497.738281 L 263.40625 497.8125 L 263.96875 496.085938 C 265.707031 490.78125 267.644531 485.585938 269.722656 480.636719 C 283.390625 448.140625 300.742188 431.761719 317.535156 415.902344 C 336.027344 398.453125 353.496094 381.964844 359.171875 350.664062 C 374.878906 264.023438 277.835938 171.703125 208.777344 130.785156 C 185.84375 117.195312 128.867188 87.640625 95.238281 106.71875 C 68.894531 121.660156 75.539062 150.078125 83.957031 186.058594 C 86.453125 196.726562 88.28125 202.789062 91.695312 219.304688 C 100.421875 215.503906 110.042969 213.382812 120.152344 213.382812 C 124.851562 213.382812 129.441406 213.851562 133.890625 214.722656 C 133.890625 214.722656 118.285156 167.3125 115.691406 151.441406 C 113.40625 137.472656 119.199219 134.277344 128.8125 135.191406 C 140.058594 136.261719 158.722656 143.410156 204.222656 174.585938 C 265.851562 216.816406 327.515625 288.019531 317.269531 344.554688 C 313.695312 364.257812 302.980469 374.375 286.753906 389.695312 C 268.914062 406.535156 246.707031 427.492188 230.003906 467.203125 C 225.570312 477.734375 221.8125 489.074219 218.824219 500.917969 L 218.609375 501.769531 L 217.140625 501.953125 C 200.617188 503.832031 185.007812 505.601562 171.414062 505.601562 C 153.261719 505.601562 141.398438 502.3125 134.085938 495.242188 C 125.550781 486.988281 126.207031 476.980469 132.46875 441.019531 C 135.675781 422.617188 139.660156 399.71875 142.074219 370.421875 C 142.453125 365.859375 142.984375 358.453125 142.984375 358.453125 C 135.890625 360.820312 128.308594 362.121094 120.425781 362.121094 C 113.519531 362.121094 106.847656 361.117188 100.523438 359.28125 C 100.523438 359.292969 100.039062 364.011719 99.742188 367.609375 C 97.445312 395.410156 93.605469 417.464844 90.519531 435.183594 C 84.121094 471.910156 79.496094 498.449219 102.960938 521.121094 C 129.984375 547.242188 169.085938 545.46875 210.164062 541.089844 L 211.914062 540.902344 L 211.769531 542.472656 C 207.496094 588.925781 214.855469 633.886719 231.964844 665.820312 C 243.882812 688.070312 260.191406 702.742188 279.121094 708.261719 C 285.210938 710.035156 291.808594 710.9375 298.726562 710.9375 C 317.699219 710.9375 338.316406 704.398438 358.339844 692.023438 C 385.226562 675.410156 414.683594 644.515625 416.730469 607.613281 C 419.246094 562.222656 378.179688 529.410156 373.484375 525.8125 "/>
<path fill-rule="nonzero" fill="rgb(6.307983%, 5.787659%, 5.090332%)" fill-opacity="1" d="M 182.777344 288.359375 C 182.777344 322.738281 154.90625 350.613281 120.523438 350.613281 C 86.140625 350.613281 58.269531 322.738281 58.269531 288.359375 C 58.269531 253.976562 86.140625 226.105469 120.523438 226.105469 C 154.90625 226.105469 182.777344 253.976562 182.777344 288.359375 "/>
<path fill-rule="nonzero" fill="rgb(6.307983%, 5.787659%, 5.090332%)" fill-opacity="1" d="M 502.082031 686.929688 L 525.023438 686.929688 C 525.472656 686.929688 525.625 686.703125 525.472656 686.25 L 513.835938 648.398438 C 513.757812 648.097656 513.644531 647.945312 513.496094 647.945312 C 513.34375 647.945312 513.230469 648.097656 513.15625 648.398438 L 501.632812 686.25 C 501.554688 686.703125 501.707031 686.929688 502.082031 686.929688 M 532.820312 709.753906 L 529.089844 697.664062 C 528.9375 697.363281 528.75 697.210938 528.523438 697.210938 L 498.691406 697.210938 C 498.46875 697.210938 498.277344 697.363281 498.128906 697.664062 L 494.398438 709.753906 C 494.171875 710.507812 493.683594 710.886719 492.929688 710.886719 L 481.628906 710.886719 C 481.179688 710.886719 480.839844 710.753906 480.613281 710.492188 C 480.386719 710.226562 480.347656 709.832031 480.5 709.304688 L 505.019531 632.914062 C 505.246094 632.164062 505.734375 631.785156 506.488281 631.785156 L 520.613281 631.785156 C 521.367188 631.785156 521.859375 632.164062 522.085938 632.914062 L 546.71875 709.304688 C 546.792969 709.457031 546.832031 709.644531 546.832031 709.867188 C 546.832031 710.546875 546.417969 710.886719 545.589844 710.886719 L 534.289062 710.886719 C 533.535156 710.886719 533.046875 710.507812 532.820312 709.753906 "/>
<path fill-rule="nonzero" fill="rgb(6.307983%, 5.787659%, 5.090332%)" fill-opacity="1" d="M 558.414062 710.492188 C 558.148438 710.226562 558.015625 709.90625 558.015625 709.53125 L 558.015625 633.140625 C 558.015625 632.765625 558.148438 632.445312 558.414062 632.179688 C 558.675781 631.917969 558.996094 631.785156 559.375 631.785156 L 569.769531 631.785156 C 570.144531 631.785156 570.464844 631.917969 570.730469 632.179688 C 570.992188 632.445312 571.125 632.765625 571.125 633.140625 L 571.125 709.53125 C 571.125 709.90625 570.992188 710.226562 570.730469 710.492188 C 570.464844 710.753906 570.144531 710.886719 569.769531 710.886719 L 559.375 710.886719 C 558.996094 710.886719 558.675781 710.753906 558.414062 710.492188 "/>
<path fill-rule="nonzero" fill="rgb(6.307983%, 5.787659%, 5.090332%)" fill-opacity="1" d="M 622.425781 643.652344 L 622.425781 666.136719 C 622.425781 666.515625 622.613281 666.703125 622.992188 666.703125 L 639.941406 666.703125 C 643.558594 666.703125 646.476562 665.628906 648.699219 663.480469 C 650.921875 661.335938 652.03125 658.492188 652.03125 654.953125 C 652.03125 651.410156 650.921875 648.546875 648.699219 646.363281 C 646.476562 644.179688 643.558594 643.085938 639.941406 643.085938 L 622.992188 643.085938 C 622.613281 643.085938 622.425781 643.273438 622.425781 643.652344 M 652.144531 709.871094 L 637.230469 677.324219 C 637.078125 677.023438 636.851562 676.875 636.550781 676.875 L 622.992188 676.875 C 622.613281 676.875 622.425781 677.0625 622.425781 677.4375 L 622.425781 709.53125 C 622.425781 709.90625 622.292969 710.226562 622.03125 710.492188 C 621.765625 710.753906 621.445312 710.886719 621.070312 710.886719 L 610.675781 710.886719 C 610.296875 710.886719 609.976562 710.753906 609.714844 710.492188 C 609.449219 710.226562 609.320312 709.90625 609.320312 709.53125 L 609.320312 633.140625 C 609.320312 632.765625 609.449219 632.445312 609.714844 632.179688 C 609.976562 631.917969 610.296875 631.785156 610.675781 631.785156 L 641.75 631.785156 C 646.34375 631.785156 650.410156 632.746094 653.953125 634.667969 C 657.492188 636.589844 660.242188 639.300781 662.203125 642.804688 C 664.160156 646.304688 665.140625 650.316406 665.140625 654.839844 C 665.140625 660.035156 663.800781 664.460938 661.128906 668.117188 C 658.453125 671.769531 654.746094 674.3125 650 675.742188 C 649.847656 675.742188 649.734375 675.820312 649.660156 675.96875 C 649.582031 676.121094 649.582031 676.269531 649.660156 676.421875 L 665.59375 709.304688 C 665.742188 709.605469 665.820312 709.832031 665.820312 709.980469 C 665.820312 710.585938 665.40625 710.886719 664.574219 710.886719 L 653.726562 710.886719 C 652.972656 710.886719 652.445312 710.546875 652.144531 709.871094 "/>
<path fill-rule="nonzero" fill="rgb(6.307983%, 5.787659%, 5.090332%)" fill-opacity="1" d="M 692.882812 665.628906 C 691.035156 667.023438 689.734375 668.964844 688.984375 671.449219 C 688.53125 672.730469 688.230469 674.386719 688.078125 676.421875 C 687.925781 676.800781 688.078125 676.984375 688.53125 676.984375 L 711.46875 676.984375 C 711.84375 676.984375 712.035156 676.800781 712.035156 676.421875 C 711.882812 674.539062 711.65625 673.105469 711.359375 672.125 C 710.679688 669.414062 709.339844 667.308594 707.34375 665.800781 C 705.347656 664.292969 702.84375 663.539062 699.832031 663.539062 C 697.042969 663.539062 694.726562 664.234375 692.882812 665.628906 M 725.367188 681.84375 L 725.253906 685.347656 C 725.253906 686.25 724.804688 686.703125 723.902344 686.703125 L 688.53125 686.703125 C 688.152344 686.703125 687.964844 686.894531 687.964844 687.269531 C 688.191406 689.753906 688.53125 691.449219 688.984375 692.355469 C 690.789062 697.777344 695.199219 700.527344 702.203125 700.601562 C 707.324219 700.601562 711.394531 698.492188 714.40625 694.273438 C 714.707031 693.820312 715.085938 693.597656 715.539062 693.597656 C 715.835938 693.597656 716.101562 693.710938 716.328125 693.9375 L 723.335938 699.699219 C 724.011719 700.226562 724.125 700.828125 723.671875 701.507812 C 721.335938 704.820312 718.230469 707.382812 714.351562 709.191406 C 710.46875 711 706.160156 711.902344 701.414062 711.902344 C 695.535156 711.902344 690.546875 710.585938 686.441406 707.945312 C 682.332031 705.3125 679.339844 701.621094 677.457031 696.875 C 675.722656 692.804688 674.859375 687.15625 674.859375 679.925781 C 674.859375 675.554688 675.308594 672.015625 676.214844 669.300781 C 677.71875 664.027344 680.566406 659.867188 684.746094 656.816406 C 688.925781 653.765625 693.953125 652.238281 699.832031 652.238281 C 714.671875 652.238281 723.03125 660 724.917969 675.515625 C 725.214844 677.398438 725.367188 679.511719 725.367188 681.84375 "/>
<path fill-rule="nonzero" fill="rgb(6.307983%, 5.787659%, 5.090332%)" fill-opacity="1" d="M 744.972656 709.472656 C 741.394531 708.078125 738.625 706.160156 736.667969 703.710938 C 734.707031 701.261719 733.730469 698.53125 733.730469 695.519531 L 733.730469 694.5 C 733.730469 694.125 733.859375 693.804688 734.125 693.539062 C 734.386719 693.277344 734.707031 693.144531 735.085938 693.144531 L 745.03125 693.144531 C 745.40625 693.144531 745.726562 693.277344 745.992188 693.539062 C 746.253906 693.804688 746.386719 694.125 746.386719 694.5 L 746.386719 694.726562 C 746.386719 696.609375 747.421875 698.25 749.496094 699.644531 C 751.566406 701.035156 754.183594 701.734375 757.347656 701.734375 C 760.359375 701.734375 762.808594 701.113281 764.691406 699.867188 C 766.574219 698.625 767.515625 697.0625 767.515625 695.179688 C 767.515625 693.445312 766.746094 692.148438 765.203125 691.28125 C 763.65625 690.414062 761.148438 689.492188 757.6875 688.511719 L 753.390625 687.15625 C 749.550781 686.027344 746.308594 684.820312 743.675781 683.539062 C 741.035156 682.257812 738.816406 680.507812 737.007812 678.285156 C 735.199219 676.066406 734.292969 673.21875 734.292969 669.753906 C 734.292969 664.480469 736.367188 660.28125 740.511719 657.15625 C 744.652344 654.03125 750.117188 652.464844 756.894531 652.464844 C 761.488281 652.464844 765.519531 653.199219 768.984375 654.667969 C 772.449219 656.136719 775.125 658.171875 777.007812 660.769531 C 778.890625 663.371094 779.832031 666.328125 779.832031 669.640625 C 779.832031 670.019531 779.703125 670.335938 779.4375 670.601562 C 779.171875 670.867188 778.855469 670.996094 778.476562 670.996094 L 768.871094 670.996094 C 768.496094 670.996094 768.175781 670.867188 767.914062 670.601562 C 767.648438 670.335938 767.515625 670.019531 767.515625 669.640625 C 767.515625 667.683594 766.554688 666.042969 764.636719 664.726562 C 762.714844 663.410156 760.097656 662.746094 756.78125 662.746094 C 753.84375 662.746094 751.453125 663.292969 749.605469 664.386719 C 747.757812 665.480469 746.835938 667.003906 746.835938 668.960938 C 746.835938 670.769531 747.722656 672.148438 749.496094 673.085938 C 751.261719 674.03125 754.21875 675.066406 758.363281 676.195312 L 760.851562 676.871094 C 764.84375 678.078125 768.195312 679.300781 770.90625 680.542969 C 773.621094 681.789062 775.914062 683.523438 777.800781 685.742188 C 779.683594 687.964844 780.625 690.847656 780.625 694.386719 C 780.625 699.738281 778.515625 703.9375 774.296875 706.988281 C 770.078125 710.039062 764.464844 711.5625 757.460938 711.5625 C 752.714844 711.5625 748.550781 710.867188 744.972656 709.472656 "/>
<path fill-rule="nonzero" fill="rgb(6.307983%, 5.787659%, 5.090332%)" fill-opacity="1" d="M 807.914062 665.628906 C 806.066406 667.023438 804.769531 668.964844 804.015625 671.449219 C 803.5625 672.730469 803.261719 674.386719 803.109375 676.421875 C 802.957031 676.800781 803.109375 676.984375 803.5625 676.984375 L 826.5 676.984375 C 826.878906 676.984375 827.066406 676.800781 827.066406 676.421875 C 826.914062 674.539062 826.6875 673.105469 826.390625 672.125 C 825.710938 669.414062 824.371094 667.308594 822.378906 665.800781 C 820.378906 664.292969 817.875 663.539062 814.863281 663.539062 C 812.074219 663.539062 809.757812 664.234375 807.914062 665.628906 M 840.402344 681.84375 L 840.289062 685.347656 C 840.289062 686.25 839.835938 686.703125 838.933594 686.703125 L 803.5625 686.703125 C 803.183594 686.703125 802.996094 686.894531 802.996094 687.269531 C 803.226562 689.753906 803.5625 691.449219 804.015625 692.355469 C 805.824219 697.777344 810.230469 700.527344 817.234375 700.601562 C 822.359375 700.601562 826.425781 698.492188 829.441406 694.273438 C 829.738281 693.820312 830.117188 693.597656 830.570312 693.597656 C 830.871094 693.597656 831.132812 693.710938 831.359375 693.9375 L 838.367188 699.699219 C 839.042969 700.226562 839.15625 700.828125 838.707031 701.507812 C 836.371094 704.820312 833.261719 707.382812 829.382812 709.191406 C 825.503906 711 821.191406 711.902344 816.445312 711.902344 C 810.570312 711.902344 805.578125 710.585938 801.472656 707.945312 C 797.367188 705.3125 794.371094 701.621094 792.488281 696.875 C 790.753906 692.804688 789.890625 687.15625 789.890625 679.925781 C 789.890625 675.554688 790.339844 672.015625 791.246094 669.300781 C 792.75 664.027344 795.597656 659.867188 799.777344 656.816406 C 803.957031 653.765625 808.988281 652.238281 814.863281 652.238281 C 829.703125 652.238281 838.066406 660 839.949219 675.515625 C 840.25 677.398438 840.402344 679.511719 840.402344 681.84375 "/>
<path fill-rule="nonzero" fill="rgb(6.307983%, 5.787659%, 5.090332%)" fill-opacity="1" d="M 880.175781 698.457031 C 882.8125 696.5 884.132812 694.011719 884.132812 691 L 884.132812 685.6875 C 884.132812 685.308594 883.945312 685.121094 883.566406 685.121094 L 874.074219 685.121094 C 870.082031 685.121094 866.9375 685.875 864.640625 687.382812 C 862.339844 688.890625 861.195312 691.035156 861.195312 693.820312 C 861.195312 696.234375 862.078125 698.097656 863.847656 699.417969 C 865.617188 700.734375 867.898438 701.394531 870.683594 701.394531 C 874.375 701.394531 877.539062 700.417969 880.175781 698.457031 M 885.941406 654.726562 C 889.554688 656.382812 892.34375 658.660156 894.300781 661.5625 C 896.261719 664.460938 897.238281 667.757812 897.238281 671.449219 L 897.238281 709.527344 C 897.238281 709.90625 897.109375 710.226562 896.84375 710.488281 C 896.578125 710.753906 896.261719 710.886719 895.882812 710.886719 L 885.488281 710.886719 C 885.109375 710.886719 884.789062 710.753906 884.527344 710.488281 C 884.261719 710.226562 884.132812 709.90625 884.132812 709.527344 L 884.132812 705.914062 C 884.132812 705.6875 884.054688 705.558594 883.90625 705.519531 C 883.753906 705.480469 883.605469 705.539062 883.453125 705.6875 C 879.761719 709.757812 874.414062 711.789062 867.40625 711.789062 C 861.757812 711.789062 857.105469 710.359375 853.453125 707.496094 C 849.796875 704.632812 847.972656 700.378906 847.972656 694.726562 C 847.972656 688.851562 850.023438 684.273438 854.128906 680.996094 C 858.238281 677.722656 864.019531 676.082031 871.476562 676.082031 L 883.566406 676.082031 C 883.945312 676.082031 884.132812 675.894531 884.132812 675.515625 L 884.132812 672.804688 C 884.132812 669.867188 883.265625 667.589844 881.53125 665.96875 C 879.800781 664.351562 877.199219 663.539062 873.738281 663.539062 C 870.871094 663.539062 868.554688 664.046875 866.785156 665.0625 C 865.015625 666.082031 863.90625 667.492188 863.453125 669.300781 C 863.226562 670.207031 862.699219 670.585938 861.871094 670.433594 L 850.910156 669.074219 C 850.53125 669.003906 850.210938 668.867188 849.949219 668.679688 C 849.683594 668.492188 849.589844 668.25 849.667969 667.945312 C 850.269531 663.351562 852.738281 659.585938 857.070312 656.644531 C 861.402344 653.707031 866.84375 652.238281 873.398438 652.238281 C 878.144531 652.238281 882.324219 653.066406 885.941406 654.726562 "/>
<path fill-rule="nonzero" fill="rgb(6.307983%, 5.787659%, 5.090332%)" fill-opacity="1" d="M 943.117188 653.933594 C 943.71875 654.234375 943.945312 654.800781 943.792969 655.628906 L 941.875 665.796875 C 941.796875 666.703125 941.269531 666.96875 940.292969 666.589844 C 939.160156 666.214844 937.84375 666.023438 936.335938 666.023438 C 935.355469 666.023438 934.601562 666.0625 934.078125 666.136719 C 930.914062 666.289062 928.273438 667.402344 926.167969 669.472656 C 924.054688 671.542969 923.003906 674.238281 923.003906 677.550781 L 923.003906 709.53125 C 923.003906 709.90625 922.871094 710.226562 922.605469 710.492188 C 922.34375 710.753906 922.023438 710.886719 921.644531 710.886719 L 911.25 710.886719 C 910.871094 710.886719 910.554688 710.753906 910.289062 710.492188 C 910.023438 710.226562 909.894531 709.90625 909.894531 709.53125 L 909.894531 654.5 C 909.894531 654.121094 910.023438 653.800781 910.289062 653.539062 C 910.554688 653.277344 910.871094 653.144531 911.25 653.144531 L 921.644531 653.144531 C 922.023438 653.144531 922.34375 653.277344 922.605469 653.539062 C 922.871094 653.800781 923.003906 654.121094 923.003906 654.5 L 923.003906 659.582031 C 923.003906 659.886719 923.058594 660.054688 923.171875 660.089844 C 923.285156 660.128906 923.414062 660.035156 923.566406 659.808594 C 926.730469 654.914062 931.136719 652.464844 936.789062 652.464844 C 939.199219 652.464844 941.308594 652.957031 943.117188 653.933594 "/>
<path fill-rule="nonzero" fill="rgb(6.307983%, 5.787659%, 5.090332%)" fill-opacity="1" d="M 959.839844 707.328125 C 955.621094 704.351562 952.683594 700.339844 951.027344 695.292969 C 949.820312 691.902344 949.21875 687.382812 949.21875 681.730469 C 949.21875 676.308594 949.820312 671.863281 951.027344 668.398438 C 952.609375 663.425781 955.527344 659.488281 959.785156 656.589844 C 964.039062 653.691406 969.070312 652.238281 974.871094 652.238281 C 980.746094 652.238281 985.867188 653.707031 990.238281 656.644531 C 994.605469 659.585938 997.507812 663.273438 998.9375 667.71875 C 999.316406 668.925781 999.578125 670.132812 999.730469 671.335938 L 999.730469 671.5625 C 999.730469 672.316406 999.316406 672.765625 998.488281 672.917969 L 988.316406 674.386719 L 988.089844 674.386719 C 987.414062 674.386719 986.960938 674.011719 986.734375 673.257812 C 986.734375 672.882812 986.695312 672.578125 986.621094 672.351562 C 986.46875 671.75 986.320312 671.222656 986.167969 670.769531 C 985.492188 668.664062 984.136719 666.929688 982.101562 665.570312 C 980.070312 664.21875 977.65625 663.539062 974.871094 663.539062 C 972.003906 663.539062 969.574219 664.273438 967.582031 665.742188 C 965.585938 667.210938 964.246094 669.226562 963.570312 671.789062 C 962.816406 674.199219 962.441406 677.550781 962.441406 681.84375 C 962.441406 685.988281 962.777344 689.34375 963.457031 691.902344 C 964.207031 694.539062 965.566406 696.628906 967.527344 698.171875 C 969.484375 699.71875 971.929688 700.488281 974.871094 700.488281 C 977.734375 700.488281 980.199219 699.753906 982.273438 698.285156 C 984.34375 696.816406 985.679688 694.839844 986.28125 692.351562 C 986.359375 692.203125 986.394531 692.015625 986.394531 691.789062 C 986.46875 691.714844 986.507812 691.601562 986.507812 691.449219 C 986.734375 690.546875 987.261719 690.171875 988.089844 690.320312 L 998.261719 691.902344 C 998.636719 691.976562 998.957031 692.148438 999.222656 692.410156 C 999.484375 692.675781 999.578125 693.03125 999.503906 693.484375 C 999.277344 694.6875 999.089844 695.554688 998.9375 696.082031 C 997.507812 700.902344 994.605469 704.726562 990.238281 707.550781 C 985.867188 710.378906 980.746094 711.789062 974.871094 711.789062 C 969.070312 711.789062 964.058594 710.304688 959.839844 707.328125 "/>
<path fill-rule="nonzero" fill="rgb(6.307983%, 5.787659%, 5.090332%)" fill-opacity="1" d="M 1052.667969 657.664062 C 1056.320312 661.277344 1058.148438 666.214844 1058.148438 672.464844 L 1058.148438 709.527344 C 1058.148438 709.90625 1058.019531 710.226562 1057.753906 710.488281 C 1057.488281 710.753906 1057.167969 710.886719 1056.792969 710.886719 L 1046.398438 710.886719 C 1046.019531 710.886719 1045.699219 710.753906 1045.4375 710.488281 C 1045.171875 710.226562 1045.042969 709.90625 1045.042969 709.527344 L 1045.042969 675.179688 C 1045.042969 671.714844 1044.0625 668.90625 1042.105469 666.757812 C 1040.144531 664.613281 1037.542969 663.539062 1034.304688 663.539062 C 1031.066406 663.539062 1028.449219 664.59375 1026.453125 666.703125 C 1024.457031 668.8125 1023.457031 671.601562 1023.457031 675.0625 L 1023.457031 709.527344 C 1023.457031 709.90625 1023.324219 710.226562 1023.0625 710.488281 C 1022.796875 710.753906 1022.480469 710.886719 1022.101562 710.886719 L 1011.707031 710.886719 C 1011.328125 710.886719 1011.007812 710.753906 1010.746094 710.488281 C 1010.480469 710.226562 1010.351562 709.90625 1010.351562 709.527344 L 1010.351562 633.140625 C 1010.351562 632.765625 1010.480469 632.445312 1010.746094 632.183594 C 1011.007812 631.917969 1011.328125 631.785156 1011.707031 631.785156 L 1022.101562 631.785156 C 1022.480469 631.785156 1022.796875 631.917969 1023.0625 632.183594 C 1023.324219 632.445312 1023.457031 632.765625 1023.457031 633.140625 L 1023.457031 658.113281 C 1023.457031 658.339844 1023.53125 658.492188 1023.683594 658.566406 C 1023.835938 658.640625 1023.949219 658.566406 1024.023438 658.339844 C 1027.109375 654.273438 1031.78125 652.238281 1038.035156 652.238281 C 1044.136719 652.238281 1049.015625 654.046875 1052.667969 657.664062 "/>
<path fill-rule="nonzero" fill="rgb(6.307983%, 5.787659%, 5.090332%)" fill-opacity="1" d="M 533.5 532.355469 L 644.492188 532.355469 L 644.492188 574.347656 L 481.226562 574.347656 L 481.226562 320.648438 L 533.5 320.648438 Z M 533.5 532.355469 "/>
<path fill-rule="nonzero" fill="rgb(6.307983%, 5.787659%, 5.090332%)" fill-opacity="1" d="M 726.207031 362.207031 C 732.714844 356.925781 740.78125 354.277344 750.425781 354.277344 C 761.117188 354.277344 769.507812 357.128906 775.609375 362.820312 C 781.707031 368.511719 784.761719 376.46875 784.761719 386.695312 C 784.761719 397.265625 781.679688 405.742188 775.519531 412.128906 C 769.363281 418.519531 759.898438 421.714844 747.121094 421.714844 L 720.285156 421.714844 L 720.285156 461.09375 C 720.285156 461.09375 754.488281 466.101562 783.445312 455.542969 C 831.535156 438.003906 835.113281 397.613281 835.113281 385.992188 C 835.113281 363.460938 827.507812 345.777344 812.289062 332.941406 C 797.066406 320.105469 776.039062 313.683594 749.210938 313.683594 C 733.757812 313.683594 719.613281 316.644531 706.777344 322.574219 C 693.941406 328.496094 683.957031 336.714844 676.808594 347.222656 C 669.671875 357.738281 666.097656 369.613281 666.097656 382.859375 L 716.453125 382.859375 C 716.453125 374.382812 719.703125 367.496094 726.207031 362.207031 "/>
<path fill-rule="nonzero" fill="rgb(6.307983%, 5.787659%, 5.090332%)" fill-opacity="1" d="M 822.671875 445.5625 C 812.769531 454.898438 798.078125 463.914062 781.941406 467.691406 C 789.761719 483.46875 789.988281 494.234375 789.988281 500.636719 C 789.988281 511.09375 785.363281 517.921875 778.570312 524.253906 C 771.773438 530.589844 762.390625 533.75 750.425781 533.75 C 739.976562 533.75 731.175781 530.730469 724.03125 524.6875 C 716.886719 518.65625 713.3125 510.867188 713.3125 501.34375 L 662.960938 501.34375 C 662.960938 523.292969 671 540.957031 687.09375 554.316406 C 703.183594 567.671875 723.882812 574.347656 749.210938 574.347656 C 776.273438 574.347656 798.027344 567.554688 814.46875 553.964844 C 830.898438 540.375 839.117188 522.308594 839.117188 499.777344 C 839.117188 485.835938 833.933594 461.269531 822.671875 445.5625 "/>
<path fill-rule="nonzero" fill="rgb(6.307983%, 5.787659%, 5.090332%)" fill-opacity="1" d="M 1010.757812 504.304688 C 1010.757812 494.4375 1007.265625 486.851562 1000.300781 481.5625 C 993.328125 476.28125 980.78125 470.710938 962.664062 464.839844 C 944.539062 458.976562 930.195312 453.195312 919.628906 447.503906 C 890.816406 431.941406 876.414062 410.972656 876.414062 384.597656 C 876.414062 370.898438 880.277344 358.664062 888.003906 347.925781 C 895.722656 337.175781 906.820312 328.785156 921.28125 322.742188 C 935.746094 316.703125 951.976562 313.679688 969.980469 313.679688 C 988.105469 313.679688 1004.246094 316.964844 1018.417969 323.527344 C 1032.589844 330.089844 1043.597656 339.355469 1051.4375 351.320312 C 1059.285156 363.289062 1063.199219 376.878906 1063.199219 392.09375 L 1010.929688 392.09375 C 1010.929688 380.480469 1007.265625 371.441406 999.949219 364.996094 C 992.632812 358.554688 982.355469 355.332031 969.109375 355.332031 C 956.332031 355.332031 946.398438 358.03125 939.320312 363.429688 C 932.226562 368.832031 928.683594 375.945312 928.683594 384.777344 C 928.683594 393.027344 932.835938 399.933594 941.144531 405.511719 C 949.449219 411.085938 961.671875 416.3125 977.820312 421.191406 C 1007.558594 430.140625 1029.226562 441.234375 1042.816406 454.472656 C 1056.40625 467.710938 1063.199219 484.210938 1063.199219 503.953125 C 1063.199219 525.910156 1054.898438 543.132812 1038.289062 555.621094 C 1021.671875 568.105469 999.308594 574.347656 971.203125 574.347656 C 951.683594 574.347656 933.910156 570.777344 917.882812 563.636719 C 901.855469 556.492188 889.628906 546.707031 881.207031 534.273438 C 872.78125 521.847656 868.574219 507.445312 868.574219 491.066406 L 921.023438 491.066406 C 921.023438 519.054688 937.746094 533.054688 971.203125 533.054688 C 983.632812 533.054688 993.328125 530.527344 1000.300781 525.472656 C 1007.265625 520.421875 1010.757812 513.367188 1010.757812 504.304688 "/>
</svg>
